<svg xmlns="http://www.w3.org/2000/svg" viewBox="0 0 128 128">
  <g fill="none" stroke-linecap="round" stroke-linejoin="round">
    <path d="M29 50c7-12 20-19 36-19 15 0 28 6 36 18" stroke="#5b3f2d" stroke-width="16"/>
    <path d="M101 49l-16-2 6-15" stroke="#5b3f2d" stroke-width="16"/>
    <path d="M29 78c7 12 20 19 36 19 15 0 28-6 36-18" stroke="#5b3f2d" stroke-width="16"/>
    <path d="M101 79l-16 2 6 15" stroke="#5b3f2d" stroke-width="16"/>
    <path d="M29 50c7-12 20-19 36-19 15 0 28 6 36 18" stroke="#d5a869" stroke-width="9"/>
    <path d="M101 49l-16-2 6-15" stroke="#d5a869" stroke-width="9"/>
    <path d="M29 78c7 12 20 19 36 19 15 0 28-6 36-18" stroke="#d5a869" stroke-width="9"/>
    <path d="M101 79l-16 2 6 15" stroke="#d5a869" stroke-width="9"/>
  </g>
</svg>
