<svg xmlns="http://www.w3.org/2000/svg" viewBox="0 0 128 128">
  <path d="M64 14c-23 0-42 18.4-42 41 0 15 8 27.4 21.7 34.8 4.3 2.4 6.7 6.2 6.7 10.2V104h27.2v-3.9c0-4 2.4-7.8 6.7-10.2C98 82.4 106 70 106 55c0-22.6-19-41-42-41z" fill="#d6a968" stroke="#5b3f2d" stroke-width="7.5" stroke-linejoin="round"/>
  <rect x="50.5" y="103" width="27" height="11.5" rx="5.8" fill="#c59759" stroke="#5b3f2d" stroke-width="6.5"/>
  <path d="M56.5 58.5c0-4.1 3.4-7.5 7.5-7.5s7.5 3.4 7.5 7.5" fill="none" stroke="#5b3f2d" stroke-width="4.6" stroke-linecap="round"/>
  <path d="M64 51v16.5" fill="none" stroke="#5b3f2d" stroke-width="4.6" stroke-linecap="round"/>
</svg>
